<?xml version="1.0" standalone="no"?>
<!DOCTYPE svg PUBLIC "-//W3C//DTD SVG 20010904//EN"
 "http://www.w3.org/TR/2001/REC-SVG-20010904/DTD/svg10.dtd">
<svg version="1.0" xmlns="http://www.w3.org/2000/svg"
 width="232.000000pt" height="55.000000pt" viewBox="0 0 232.000000 55.000000"
 preserveAspectRatio="xMidYMid meet">

<g transform="translate(0.000000,55.000000) scale(0.100000,-0.100000)"
fill="#000000" stroke="none">
<path d="M1190 526 c0 -23 4 -25 53 -28 l52 -3 0 -205 0 -205 -52 -3 c-51 -3
-53 -4 -53 -33 l0 -29 160 0 160 0 0 30 c0 30 -1 30 -55 30 l-55 0 0 235 0
235 -105 0 c-105 0 -105 0 -105 -24z"/>
<path d="M110 510 c0 -29 1 -29 63 -32 l62 -3 3 -160 c4 -235 4 -235 -129
-235 l-89 0 0 -30 0 -30 118 0 c189 0 192 5 192 305 l0 215 -110 0 -110 0 0
-30z"/>
<path d="M410 510 c0 -30 1 -30 55 -30 l55 0 0 -230 0 -230 50 0 50 0 0 230 0
230 50 0 c49 0 50 1 50 30 l0 30 -155 0 -155 0 0 -30z"/>
<path d="M852 524 c-46 -32 -52 -61 -52 -244 0 -250 7 -260 197 -260 l123 0 0
145 0 145 -90 0 -90 0 0 -29 c0 -28 3 -30 43 -33 l42 -3 0 -80 0 -80 -45 -3
c-83 -5 -85 0 -85 198 0 207 -5 200 127 200 l88 0 0 30 0 30 -118 0 c-90 0
-123 -4 -140 -16z"/>
<path d="M1618 414 c-15 -8 -31 -27 -35 -42 -10 -35 -10 -259 0 -294 12 -45
52 -58 177 -58 l110 0 0 30 0 30 -84 0 c-100 0 -119 12 -114 69 l3 36 80 3
c112 3 124 7 141 47 27 65 9 161 -34 184 -31 17 -211 13 -244 -5z m190 -56
c13 -13 16 -66 6 -92 -5 -12 -21 -16 -75 -16 l-69 0 0 44 c0 27 6 51 16 60 19
19 104 22 122 4z"/>
<path d="M1970 400 l0 -30 95 0 c65 0 95 -4 95 -11 0 -7 -43 -78 -95 -158 -52
-81 -95 -155 -95 -164 0 -15 16 -17 160 -17 l160 0 0 30 0 30 -90 0 c-55 0
-90 4 -90 10 0 6 41 75 90 153 50 79 90 153 90 165 0 22 -2 22 -160 22 l-160
0 0 -30z"/>
</g>
</svg>
